HIERARCHY
ROOT root
{
	OFFSET 0.000000 0.000000 0.000000
	CHANNELS 6 Xposition Yposition Zposition Zrotation Yrotation Xrotation
	JOINT lhip
	{
		OFFSET 0.058581 -0.082280 -0.017664
		CHANNELS 3 Zrotation Yrotation Xrotation
		JOINT lknee
		{
			OFFSET 0.043451 -0.386469 0.008037
			CHANNELS 3 Zrotation Yrotation Xrotation
			JOINT lankle
			{
				OFFSET -0.014790 -0.426874 -0.037428
				CHANNELS 3 Zrotation Yrotation Xrotation
				JOINT ltoe
				{
					OFFSET 0.041054 -0.060286 0.122042
					CHANNELS 3 Zrotation Yrotation Xrotation
					End Site
					{
						OFFSET 0.000000 0.000000 0.000000
					}
				}
			}
		}
	}
	JOINT rhip
	{
		OFFSET -0.060310 -0.090513 -0.013543
		CHANNELS 3 Zrotation Yrotation Xrotation
		JOINT rknee
		{
			OFFSET -0.043257 -0.383688 -0.004843
			CHANNELS 3 Zrotation Yrotation Xrotation
			JOINT rankle
			{
				OFFSET 0.019056 -0.420046 -0.034562
				CHANNELS 3 Zrotation Yrotation Xrotation
				JOINT rtoe
				{
					OFFSET -0.034840 -0.062106 0.130323
					CHANNELS 3 Zrotation Yrotation Xrotation
					End Site
					{
						OFFSET 0.000000 0.000000 0.000000
					}
				}
			}
		}
	}
	JOINT lowerback
	{
		OFFSET 0.004439 0.124404 -0.038385
		CHANNELS 3 Zrotation Yrotation Xrotation
		JOINT upperback
		{
			OFFSET 0.004488 0.137956 0.026820
			CHANNELS 3 Zrotation Yrotation Xrotation
			JOINT chest
			{
				OFFSET -0.002265 0.056032 0.002855
				CHANNELS 3 Zrotation Yrotation Xrotation
				JOINT lowerneck
				{
					OFFSET -0.013390 0.211636 -0.033468
					CHANNELS 3 Zrotation Yrotation Xrotation
					JOINT upperneck
					{
						OFFSET 0.010113 0.088937 0.050410
						CHANNELS 3 Zrotation Yrotation Xrotation
						End Site
						{
							OFFSET 0.000000 0.000000 0.000000
						}
					}
				}
				JOINT lclavicle
				{
					OFFSET 0.071702 0.114000 -0.018898
					CHANNELS 3 Zrotation Yrotation Xrotation
					JOINT lshoulder
					{
						OFFSET 0.122921 0.045205 -0.019046
						CHANNELS 3 Zrotation Yrotation Xrotation
						JOINT lelbow
						{
							OFFSET 0.255332 -0.015649 -0.022946
							CHANNELS 3 Zrotation Yrotation Xrotation
							JOINT lwrist
							{
								OFFSET 0.265709 0.012698 -0.007375
								CHANNELS 3 Zrotation Yrotation Xrotation
								End Site
								{
									OFFSET 0.000000 0.000000 0.000000
								}
							}
						}
					}
				}
				JOINT rclavicle
				{
					OFFSET -0.082954 0.112472 -0.023707
					CHANNELS 3 Zrotation Yrotation Xrotation
					JOINT rshoulder
					{
						OFFSET -0.113228 0.046853 -0.008472
						CHANNELS 3 Zrotation Yrotation Xrotation
						JOINT relbow
						{
							OFFSET -0.260127 -0.014369 -0.031269
							CHANNELS 3 Zrotation Yrotation Xrotation
							JOINT rwrist
							{
								OFFSET -0.269108 0.006794 -0.006027
								CHANNELS 3 Zrotation Yrotation Xrotation
								End Site
								{
									OFFSET 0.000000 0.000000 0.000000
								}
							}
						}
					}
				}
			}
		}
	}
}
MOTION
Frames: 9
Frame Time: 0.033333
0.614341 -0.220220 1.028874 168.966750 1.709132 84.138174 2.389967 -1.514080 -10.029924 -3.600760 6.345581 36.496480 1.958526 13.764474 -11.860040 0.000000 -0.000000 0.000000 2.408645 -2.365387 3.418938 1.461705 5.276054 9.357389 1.958134 -1.191162 -10.217140 0.000000 -0.000000 0.000000 3.465520 3.931374 9.521210 2.015650 -2.133179 4.794542 0.014546 0.348019 3.123749 0.584242 1.662808 3.890272 0.834397 4.867322 2.799278 -25.155007 1.966909 2.548927 -60.850798 -2.639683 11.158849 10.594273 -35.504261 8.161501 11.573370 -5.193197 -11.539565 22.563463 4.065503 4.835247 49.042449 8.927458 8.906549 -13.453801 27.717223 3.172465 -1.528263 6.615138 -2.357632 
0.621193 -0.203150 1.027815 169.944674 1.510660 84.015360 1.972282 -1.265518 -11.425723 -3.649419 7.677685 30.655550 2.132222 13.592315 -11.757629 0.000000 -0.000000 0.000000 2.023822 -3.468951 5.962572 1.560673 5.219180 7.439355 2.174507 -1.079598 -10.569291 0.000000 -0.000000 0.000000 3.546899 4.759676 9.368090 1.801813 -2.186482 4.984026 0.049975 0.676489 3.222962 0.450412 1.078700 3.857534 0.951474 4.000356 2.600886 -24.873004 1.900971 2.362667 -61.439550 -2.176702 11.363034 10.188516 -35.413975 8.780604 10.645129 -4.906982 -11.251264 22.213107 4.411644 4.885437 48.304619 10.105078 8.328104 -13.980267 30.042855 1.447068 -1.771210 6.899931 -1.461617 
0.627299 -0.186709 1.025962 170.880071 1.632574 84.221271 1.753868 -0.654852 -13.041123 -3.684243 8.767117 24.450120 2.067199 13.362321 -10.539854 0.000000 -0.000000 0.000000 2.090186 -4.203036 8.020556 1.652102 5.468752 5.760166 1.825577 -1.278058 -10.845788 0.000000 -0.000000 0.000000 3.490756 5.327804 9.206574 1.955222 -2.310529 5.170085 0.219481 1.186146 3.049605 0.066513 0.499644 3.826199 1.169879 3.222903 2.227375 -24.236843 1.619719 2.138840 -62.651790 -0.940359 11.307447 9.865743 -36.010102 10.579800 9.252172 -4.006162 -12.050834 22.447775 4.272121 5.107821 47.750877 10.145312 7.267004 -16.612245 35.499600 0.652355 -1.190012 6.006176 -1.972629 
0.633251 -0.169849 1.023078 171.882621 1.806463 84.261450 1.462134 -0.053489 -14.104889 -4.056077 9.122321 17.749564 1.848760 12.099486 -8.752843 0.000000 -0.000000 0.000000 2.069607 -5.236089 10.249452 1.886184 5.030369 3.901008 1.636299 -0.613940 -11.395589 0.000000 -0.000000 0.000000 3.688519 5.626505 9.294630 1.675172 -2.370200 4.881629 0.150140 1.403915 2.961734 0.435099 0.263919 3.793890 1.219012 2.540772 2.363993 -24.057137 1.745966 1.973867 -63.023064 -0.644204 11.478320 9.612711 -34.695140 10.983771 9.711186 -4.545392 -11.880712 21.279068 4.955422 4.501857 48.143367 12.027062 7.337298 -15.696753 35.101300 0.057822 -3.407215 7.836247 -2.717299 
0.639367 -0.152107 1.019269 172.792783 2.050603 84.118255 0.941784 0.540654 -14.900927 -3.853841 9.001421 11.610256 1.457083 10.939828 -6.347777 0.000000 -0.000000 0.000000 2.082837 -5.966447 12.974507 2.186728 5.100832 1.644489 1.471963 -0.694721 -11.551519 0.000000 -0.000000 0.000000 3.856956 5.753130 9.464274 1.392869 -2.584235 4.855239 0.215075 1.368948 2.958592 0.443671 0.313443 3.164057 1.347952 2.549720 2.342591 -24.057848 1.758149 2.430196 -62.971522 -0.065059 11.493310 9.744167 -34.652627 10.451669 9.428298 -4.452034 -11.386793 21.369829 5.497735 4.334830 47.508616 13.118816 7.055540 -16.537846 37.409369 -1.882330 -3.713560 8.353334 -1.924329 
0.645165 -0.133515 1.014682 173.372389 2.499748 84.190879 0.703496 0.845357 -16.075984 -2.997644 8.899695 6.998289 1.399164 10.356166 -5.167562 0.000000 -0.000000 0.000000 2.345201 -6.603859 15.156166 2.410486 5.467692 0.046793 1.373363 -0.759954 -11.889440 0.000000 -0.000000 0.000000 4.050128 6.005807 9.590836 1.220888 -2.873555 4.616707 0.346278 1.235815 3.012076 0.551677 0.572881 2.437480 1.311090 2.396828 2.614397 -24.275265 2.205643 3.298548 -62.913273 0.234223 11.329626 10.055688 -34.607861 10.274916 8.948808 -4.636923 -11.436898 20.946134 5.716127 4.250667 47.927250 14.018225 7.623257 -18.053920 40.240026 -2.617808 -3.775152 9.159862 -3.312848 
0.650438 -0.113968 1.009593 173.449354 2.973004 84.189406 0.788340 0.771140 -17.053819 -2.020540 8.994148 3.707834 1.402438 10.550755 -4.244585 0.000000 -0.000000 0.000000 2.643866 -6.906895 17.303792 2.551759 5.935159 -1.190099 1.191655 -0.875394 -12.446258 0.000000 -0.000000 0.000000 3.871734 6.443790 9.364646 1.323954 -3.143333 5.244190 0.725158 1.234013 2.701067 0.172082 0.531151 2.230699 1.508769 2.760038 1.641165 -24.838417 1.040550 4.865626 -63.117860 0.961177 9.117503 10.800185 -35.246135 9.764801 8.613641 -4.365919 -10.764043 20.623513 6.634932 4.297040 47.866446 14.359248 6.773713 -18.830387 43.511204 -2.772168 -4.169135 9.595522 -3.483638 
0.655244 -0.092284 1.004472 173.204591 3.201991 83.695579 0.996977 1.422121 -17.615853 -1.704939 9.227399 2.523260 1.497389 9.956321 -4.315428 0.000000 -0.000000 0.000000 2.272131 -8.011935 19.477992 2.651056 6.256357 -1.176559 1.324786 0.272060 -13.642694 0.000000 -0.000000 0.000000 3.731898 6.879106 9.887743 1.308237 -2.946261 4.915321 0.460679 1.831338 2.585811 0.695541 0.599956 2.243979 1.403687 2.327449 2.424270 -24.113635 1.683441 2.910060 -63.232728 1.897169 10.225816 9.644722 -33.607692 10.677687 9.853559 -3.921439 -10.340822 21.238433 6.031630 4.245223 47.316973 14.465278 6.903156 -18.412041 47.075011 -4.401437 -5.778877 9.786911 -1.352211 
0.659525 -0.069704 0.999446 172.326997 3.314824 83.441656 1.779826 1.121671 -17.972649 -1.621116 9.049049 2.531373 0.796730 10.146975 -4.035772 0.000000 -0.000000 0.000000 2.081819 -7.909736 21.159927 2.590016 7.424030 -0.898768 1.477692 0.113195 -14.453931 0.000000 -0.000000 0.000000 3.192596 7.688104 9.852546 1.243984 -3.115597 5.418843 0.924632 1.525766 2.671183 0.132307 1.265815 0.949897 1.130029 2.652145 2.396200 -25.067876 1.254068 4.911444 -62.842571 1.548737 7.987255 10.263862 -34.182431 8.973231 9.299040 -3.954434 -9.186588 21.278387 6.947337 4.564351 47.440344 14.673878 7.271147 -19.770121 50.178428 -5.811408 -4.980507 9.937817 -1.219972 
